<?xml version="1.0" encoding="utf-8"?>
<!-- Generator: Adobe Illustrator 24.0.2, SVG Export Plug-In . SVG Version: 6.00 Build 0)  -->
<svg version="1.1" id="Capa_1" xmlns="http://www.w3.org/2000/svg" xmlns:xlink="http://www.w3.org/1999/xlink" x="0px" y="0px"
	 viewBox="0 0 146 145" style="enable-background:new 0 0 146 145;" xml:space="preserve">
<style type="text/css">
	.st0{fill:none;stroke:#19928E;stroke-width:2;stroke-linecap:round;stroke-linejoin:round;stroke-miterlimit:10;}
	.st1{fill:none;stroke:#19928E;stroke-width:2;stroke-miterlimit:10;}
</style>
<g id="Capa_1_1_">
</g>
<g id="Capa_2_1_">
	<polygon class="st0" points="83,124.9 94.2,115.3 126.5,85.3 135.8,95.2 123.2,112 141.7,131.1 129.5,142.6 110.7,123.5 
		92.6,135.7 	"/>
	<polygon class="st1" points="3.3,33.6 94.2,115.3 113.4,97.6 33,6 1.4,2 	"/>
	<line class="st1" x1="1.4" y1="2" x2="98.9" y2="100.8"/>
	<polygon class="st0" points="63,124.9 51.8,115.3 19.5,85.3 10.2,95.2 22.8,112 4.3,131.1 16.5,142.6 35.3,123.5 53.4,135.7 	"/>
	<line class="st1" x1="143.5" y1="3.2" x2="88.6" y2="58.8"/>
	<line class="st1" x1="47.1" y1="100.8" x2="58.6" y2="89.2"/>
	<polyline class="st1" points="76.9,47.2 113,6 144.6,2 142.7,33.6 98.9,73 	"/>
	<polyline class="st1" points="47.5,80.7 32.6,97.6 51.8,115.3 69.1,99.7 	"/>
</g>
</svg>
